# xmcd
#
# Track frame offsets:
#	150
#	24263
#	44567
#	55246
#	72850
#	95242
#	114874
#	127378
#	143421
#	165434
#
# Disc length: 2389 seconds
# Revision: 0
# Processed by: cddbd v1.5.2PL0 Copyright (c) Steve Scherf et al.
# Submitted via: dBpowerAMP V12.0
#
DISCID=8709530a
DTITLE=Stephanie Cadman - Unleashed
DYEAR=2005
DGENRE=Celtic
TTITLE0=Bogged Down
TTITLE1=Jig Medley
TTITLE2=Steph's Snuff
TTITLE3=A Medley
TTITLE4=Lead The Knave
TTITLE5=Brian's Cryin'
TTITLE6=Take Me Home
TTITLE7=Pointed Pic
TTITLE8=Lifted By Love
TTITLE9=East Coast Killaz
EXTD=
EXTT0=
EXTT1=
EXTT2=
EXTT3=
EXTT4=
EXTT5=
EXTT6=
EXTT7=
EXTT8=
EXTT9=
PLAYORDER=
